 <svg width="241" height="36" viewBox="0 0 241 36" fill="none" xmlns="http://www.w3.org/2000/svg">
<path d="M238.698 33.2629C239.002 33.1835 239.221 32.9644 239.221 32.5913C239.221 32.17 238.951 31.8739 238.469 31.8739H237.706V34.1031H237.976V33.2726H238.412L239.011 34.1031H239.327L238.698 33.2629ZM237.971 33.027V32.1194H238.453C238.778 32.1194 238.951 32.2879 238.951 32.5961C238.951 32.8874 238.778 33.027 238.453 33.027H237.971ZM238.698 33.2629C239.002 33.1835 239.221 32.9644 239.221 32.5913C239.221 32.17 238.951 31.8739 238.469 31.8739H237.706V34.1031H237.976V33.2726H238.412L239.011 34.1031H239.327L238.698 33.2629ZM237.971 33.027V32.1194H238.453C238.778 32.1194 238.951 32.2879 238.951 32.5961C238.951 32.8874 238.778 33.027 238.453 33.027H237.971ZM238.419 30.9542C237.372 30.9542 236.43 31.7487 236.43 33.0101C236.43 34.2716 237.372 35.0396 238.419 35.0396C239.466 35.0396 240.407 34.2427 240.407 33.0101C240.407 31.7776 239.466 30.9542 238.419 30.9542ZM238.419 34.7194C237.545 34.7194 236.753 34.0742 236.753 33.0101C236.753 31.9461 237.545 31.2744 238.419 31.2744C239.293 31.2744 240.082 31.9172 240.082 33.0101C240.082 34.1031 239.293 34.7194 238.419 34.7194ZM239.221 32.5913C239.221 32.17 238.951 31.8739 238.469 31.8739H237.706V34.1031H237.976V33.2726H238.412L239.011 34.1031H239.327L238.698 33.2629C239.002 33.1835 239.221 32.9644 239.221 32.5913ZM237.971 33.027V32.1194H238.453C238.778 32.1194 238.951 32.2879 238.951 32.5961C238.951 32.8874 238.778 33.027 238.453 33.027H237.971Z" fill="#0147FF"/>
<path d="M126.853 5.58981H118.14V0.478882H141.066V5.58981H132.353V35.0396H126.853V5.58981Z" fill="#0147FF"/>
<path d="M149.068 8.75311C142.643 8.75311 136.364 13.3777 136.364 21.8951C136.364 30.4126 142.594 35.0396 149.458 35.0396C153.741 35.0396 157.39 33.287 159.581 30.5594L157.051 27.9329C155.202 29.6831 152.768 30.5594 150.04 30.5594C145.71 30.5594 142.253 28.3205 141.427 23.9414H161.285C162.501 13.3296 155.493 8.75311 149.068 8.75311ZM141.376 19.95C142.156 15.4698 145.563 13.3296 149.116 13.3296C152.669 13.3296 156.223 15.5685 156.514 19.95H141.376Z" fill="#0147FF"/>
<path d="M186.501 9.24182V13.2815H186.354C185.429 11.2857 182.218 8.75311 177.593 8.75311C171.606 8.75311 165.325 13.1827 165.325 21.8951C165.325 30.6076 171.606 35.0396 177.593 35.0396C182.218 35.0396 185.429 32.507 186.354 30.5113H186.501V34.5509H191.855V9.24182H186.501ZM178.614 30.1718C174.574 30.1718 170.631 27.3479 170.631 21.8951C170.631 16.4424 174.574 13.6209 178.614 13.6209C182.654 13.6209 186.648 16.4448 186.648 21.8951C186.648 27.3455 182.704 30.1718 178.614 30.1718Z" fill="#0147FF"/>
<path d="M212.221 20.5326C212.221 16.4448 210.226 14.1072 206.867 14.1072C203.509 14.1072 201.171 16.4448 201.171 20.5326V35.0372H195.817V9.72574H201.171V13.3272C202.486 11.0883 204.872 9.23944 208.668 9.23944C211.978 9.23944 214.802 10.7007 216.36 13.8641C217.722 11.382 220.498 9.23944 224.829 9.23944C230.135 9.23944 234.028 12.5978 234.028 20.2389V35.0372H228.626V20.5326C228.626 16.4448 226.63 14.1072 223.271 14.1072C219.913 14.1072 217.626 16.4448 217.626 20.5326V35.0372H212.224V20.5326H212.221Z" fill="#0147FF"/>
<path d="M85.4017 0.478882H77.8569V35.0396H85.4017V0.478882Z" fill="#0147FF"/>
<path d="M97.0656 0.478882H89.5208V35.0396H97.0656V0.478882Z" fill="#0147FF"/>
<path d="M99.0783 27.8342L105.066 26.2285C105.456 27.4443 106.332 29.1487 108.715 29.1487C110.078 29.1487 111.344 28.4674 111.344 27.0543C111.344 26.2261 110.858 25.4485 109.201 24.9117L105.795 23.6454C101.608 22.1359 99.8077 19.4107 99.8077 16.2474C99.8077 11.5265 104.042 8.75073 109.006 8.75073C113.971 8.75073 117.233 11.4278 118.109 15.518L112.218 16.9793C111.585 15.0317 110.321 14.5935 109.298 14.5935C107.836 14.5935 107.107 15.4698 107.107 16.3461C107.107 17.1743 107.593 17.9519 109.298 18.4863L112.461 19.6539C115.186 20.5783 118.788 22.4778 118.788 27.0518C118.788 32.1628 114.454 35.0348 108.809 35.0348C103.698 35.0348 99.8535 32.6491 99.0735 27.8319L99.0783 27.8342Z" fill="#0147FF"/>
<path d="M66.287 9.24182V12.1114H66.1402C65.7526 11.187 63.1237 8.75311 58.6459 8.75311C52.9018 8.75311 46.5728 13.0864 46.5728 21.8976C46.5728 30.7087 52.9018 35.0396 58.6459 35.0396C63.1237 35.0396 65.7526 32.6057 66.1402 31.6789H66.287V34.5509H73.8318V9.24182H66.287ZM60.2035 28.3205C56.9896 28.3205 54.0213 25.9853 54.0213 21.8976C54.0213 17.8098 56.9896 15.4722 60.2035 15.4722C63.4174 15.4722 66.482 17.7592 66.482 21.8976C66.482 26.0359 63.5137 28.3205 60.2035 28.3205Z" fill="#0147FF"/>
<path d="M29.6318 19.7502C28.8374 19.7502 28.1946 19.105 28.1946 18.3105C28.1946 18.1877 28.209 18.0698 28.2379 17.9542L30.7344 19.235C30.4696 19.5503 30.0748 19.7502 29.6318 19.7502Z" fill="#0147FF"/>
<path d="M48.6286 0.478882L37.8241 35.0396H36.0499C33.0478 34.2741 30.963 31.8546 30.2986 29.7794C29.2393 26.462 30.4165 23.9078 32.3039 22.8798C35.0941 21.3583 36.7456 22.6824 37.2199 23.2698L37.4149 23.5154C37.4149 23.5154 37.4149 23.5178 37.4173 23.5202C37.4221 23.513 37.4245 23.5105 37.4269 23.5057C37.4341 23.4913 37.4486 23.4696 37.463 23.4359C37.6845 23.0002 37.8097 22.5067 37.8097 21.9842C37.8097 20.2148 36.3749 18.78 34.6054 18.78C34.5139 18.78 34.4249 18.7848 34.3382 18.792L33.2669 17.8315C33.0165 17.6052 32.7276 17.4294 32.4147 17.3091L27.7804 15.3133L24.6339 8.20184C24.5473 8.00684 24.2993 7.95388 24.1404 8.09351C23.2858 8.85907 21.1673 11.1317 23.1365 13.3946L23.9502 14.283L19.783 12.0754C19.5904 11.9743 19.3521 12.0874 19.316 12.3041C19.121 13.4067 18.873 16.3172 21.4056 17.1285H17.8475C17.6476 17.1285 17.5056 17.3211 17.5658 17.5113C17.9004 18.5417 19.0487 21.2331 21.7523 20.3978C18.6997 24.5409 16.7762 29.5676 16.4993 35.0372H11.0032L0.148193 0.478882H8.22745L14.5084 15.9585L21.3695 0.478882H27.4554L34.2708 15.9585L40.5493 0.478882H48.6286Z" fill="#0147FF"/>
</svg>